<?xml version="1.0" encoding="utf-8"?>
<svg xmlns="http://www.w3.org/2000/svg" xmlns:svg="http://www.w3.org/2000/svg" version="1.1" viewBox="0 0 1400 440">
	<title>The titlepage for the Standard Ebooks edition of The Conjure Woman, by Charles W. Chesnutt</title>
	<g aria-label="THE CONJURE">
		<path d="m 341.41008,68.245613 h 18.33918 V 130 h 17.59065 V 68.245613 h 18.33918 V 52.807016 h -54.26901 z"/>
		<path d="m 424.60453,99.029239 h 24.88889 V 130 h 17.59064 V 52.807016 H 449.49342 V 83.590642 H 424.60453 V 52.807016 H 407.01388 V 130 h 17.59065 z"/>
		<path d="M 527.44956,52.807016 H 483.28582 V 130 h 44.16374 v -15.4386 h -26.5731 V 99.029239 h 25.45029 V 83.590642 H 500.87646 V 68.245613 h 26.5731 z"/>
		<path d="m 611.29898,114.09357 c -17.68422,0 -25.4503,-12.35088 -25.4503,-22.736846 0,-10.292397 7.76608,-22.643275 25.4503,-22.643275 8.98245,0 15.15789,4.77193 15.15789,4.77193 l 7.48538,-14.97076 c 0,0 -8.60819,-7.111112 -25.35672,-7.111112 -21.89474,0 -41.82457,17.964913 -41.82457,40.140352 0,22.081871 20.0234,39.859651 41.82457,39.859651 16.74853,0 25.35672,-7.11111 25.35672,-7.11111 l -7.48538,-14.97076 c 0,0 -6.17544,4.77193 -15.15789,4.77193 z"/>
		<path d="m 642.3019,91.356724 c 0,22.549706 16.09357,40.046786 38.92398,40.046786 22.17544,0 38.83041,-17.49708 38.83041,-40.046786 0,-22.549708 -17.40351,-39.953217 -38.83041,-39.953217 -21.23977,0 -38.92398,17.403509 -38.92398,39.953217 z m 18.99415,0 c 0,-11.508772 6.36258,-23.017544 19.92983,-23.017544 13.66082,0 19.83626,11.508772 19.83626,23.017544 0,11.508776 -5.80117,23.017546 -19.83626,23.017546 -14.40936,0 -19.92983,-11.50877 -19.92983,-23.017546 z"/>
		<path d="m 750.40864,82.093566 h 0.18714 L 781.28584,130 h 17.59064 V 52.807016 H 781.28584 V 100.71345 H 781.0987 L 750.40864,52.807016 H 732.818 V 130 h 17.59064 z"/>
		<path d="M 848.71125,52.807016 H 831.12061 V 103.7076 c 0,7.76608 -3.83626,10.8538 -8.88889,10.8538 -4.49123,0 -10.01169,-5.23976 -10.01169,-5.23976 l -5.61404,14.69006 c 0,0 7.01754,7.39181 18.05848,7.39181 15.4386,0 24.04678,-8.04678 24.04678,-23.20468 z"/>
		<path d="m 923.30193,52.807016 h -17.59064 v 44.63158 c 0,12.912284 -3.92983,16.654974 -12.53802,16.654974 -8.60818,0 -12.53801,-3.74269 -12.53801,-16.654974 v -44.63158 h -17.59064 v 49.777774 c 0,19.08772 10.47953,28.81872 30.12865,28.81872 19.64913,0 30.12866,-9.731 30.12866,-28.81872 z"/>
		<path d="M 938.60749,52.807016 V 130 h 17.59064 V 99.497075 L 979.77708,130 h 22.36262 L 975.56655,98.093567 c 9.4503,-2.994152 15.81287,-10.760234 15.81287,-22.362574 0,-15.157895 -10.8538,-22.923977 -25.16959,-22.923977 z m 17.59064,34.245615 V 66.842104 h 2.05848 c 6.64328,0 14.59649,0.467836 14.59649,10.105263 0,9.637428 -7.95321,10.105264 -14.59649,10.105264 z"/>
		<path d="m 1054.84,52.807016 h -44.1638 V 130 h 44.1638 v -15.4386 h -26.5731 V 99.029239 h 25.4503 V 83.590642 h -25.4503 V 68.245613 h 26.5731 z"/>
	</g>
	<g aria-label="WOMAN">
		<path d="m 543.31067,230 h 19.46199 l 21.9883,-77.19298 h -19.46199 l -13.19298,52.95906 h -0.46783 l -14.03509,-52.95906 h -13.28655 l -14.03509,52.95906 h -0.46784 L 496.62061,152.80702 H 477.06505 L 499.05336,230 h 19.55556 l 12.35087,-43.32164 z"/>
		<path d="m 587.5943,191.35672 c 0,22.54971 16.09356,40.04679 38.92397,40.04679 22.17544,0 38.83041,-17.49708 38.83041,-40.04679 0,-22.5497 -17.40351,-39.95321 -38.83041,-39.95321 -21.23976,0 -38.92397,17.40351 -38.92397,39.95321 z m 18.99415,0 c 0,-11.50877 6.36257,-23.01754 19.92982,-23.01754 13.66082,0 19.83626,11.50877 19.83626,23.01754 0,11.50878 -5.80117,23.01755 -19.83626,23.01755 -14.40935,0 -19.92982,-11.50877 -19.92982,-23.01755 z"/>
		<path d="m 741.92324,230 h 17.59064 l -6.92398,-77.19298 h -18.71345 l -17.1228,44.53801 -17.12281,-44.53801 H 680.91739 L 673.99341,230 h 17.59064 l 3.64913,-45.75439 h 0.46783 l 15.81287,45.28655 h 10.47953 l 15.81287,-45.28655 h 0.46783 z"/>
		<path d="M 810.76537,152.80702 H 794.48466 L 763.32677,230 h 18.90058 l 5.70761,-15.4386 h 29.38011 L 823.02268,230 h 18.90058 z m 0.5614,46.31579 h -17.40351 l 8.60819,-22.45614 h 0.18713 z"/>
		<path d="m 867.4335,182.09357 h 0.18713 L 898.31069,230 h 17.59064 v -77.19298 h -17.59064 v 47.90643 h -0.18713 L 867.4335,152.80702 H 849.84285 V 230 h 17.59065 z"/>
	</g>
	<g aria-label="CHARLES W. CHESNUTT">
		<path d="m 263.27687,378.07018 c -13.26316,0 -19.08772,-9.26316 -19.08772,-17.05264 0,-7.71929 5.82456,-16.98245 19.08772,-16.98245 6.73684,0 11.36842,3.57895 11.36842,3.57895 l 5.61403,-11.22807 c 0,0 -6.45614,-5.33334 -19.01754,-5.33334 -16.42105,0 -31.36842,13.47369 -31.36842,30.10527 0,16.5614 15.01754,29.89473 31.36842,29.89473 12.5614,0 19.01754,-5.33333 19.01754,-5.33333 l -5.61403,-11.22807 c 0,0 -4.63158,3.57895 -11.36842,3.57895 z"/>
		<path d="M 303.56853,366.77193 H 322.2352 V 390 h 13.19298 V 332.10526 H 322.2352 v 23.08772 H 303.56853 V 332.10526 H 290.37555 V 390 h 13.19298 z"/>
		<path d="M 378.23301,332.10526 H 366.02248 L 342.65406,390 h 14.17544 l 4.2807,-11.57895 h 22.03509 L 387.42599,390 h 14.17544 z m 0.42105,34.73685 H 365.60143 L 372.05757,350 h 0.14035 z"/>
		<path d="M 408.79112,332.10526 V 390 h 13.19299 V 367.12281 L 439.66832,390 h 16.77193 l -19.92983,-23.92982 c 7.08772,-2.24562 11.85965,-8.07018 11.85965,-16.77193 0,-11.36842 -8.14035,-17.19299 -18.87719,-17.19299 z m 13.19299,25.68421 v -15.15789 h 1.54386 c 4.98245,0 10.94736,0.35088 10.94736,7.57895 0,7.22807 -5.96491,7.57894 -10.94736,7.57894 z"/>
		<path d="M 477.28564,332.10526 H 464.09265 V 390 h 33.12281 v -11.57895 h -19.92982 z"/>
		<path d="M 541.82621,332.10526 H 508.7034 V 390 h 33.12281 v -11.57895 h -19.92983 v -11.64912 h 19.08772 v -11.57895 h -19.08772 v -11.50877 h 19.92983 z"/>
		<path d="m 575.74398,331.05263 c -9.33333,0 -18.87719,6.8772 -18.87719,17.68421 0,6.03509 4.07017,11.4386 11.01754,14.8772 6.87719,3.43859 13.05263,5.33333 13.05263,9.54385 0,5.40351 -5.47368,5.68422 -8.35088,5.68422 -6.45614,0 -14.17543,-6.52632 -14.17543,-6.52632 l -6.59649,11.08772 c 0,0 8.21052,7.64912 21.75438,7.64912 11.29825,0 21.82456,-4.8421 21.82456,-18.66666 0,-7.57895 -7.08772,-13.05264 -13.54386,-15.78948 -6.59649,-2.80702 -12.07017,-5.12281 -12.07017,-8.35088 0,-3.15789 2.38596,-5.19298 6.87719,-5.19298 5.96491,0 11.7193,4 11.7193,4 l 5.33333,-10.52631 c 0,0 -7.43859,-5.47369 -17.96491,-5.47369 z"/>
		<path d="m 669.13871,390 h 14.59649 l 16.49122,-57.89474 h -14.59649 l -9.89473,39.7193 h -0.35088 L 664.858,332.10526 h -9.96491 l -10.52631,39.7193 h -0.35088 l -9.89474,-39.7193 H 619.4545 L 635.94572,390 h 14.66667 l 9.26316,-32.49123 z"/>
		<path d="m 711.86786,374.98246 c -4.42105,0 -8,3.57894 -8,8.07017 0,4.42105 3.57895,8 8,8 4.49123,0 8.07018,-3.57895 8.07018,-8 0,-4.49123 -3.57895,-8.07017 -8.07018,-8.07017 z"/>
		<path d="m 786.20448,378.07018 c -13.26316,0 -19.08772,-9.26316 -19.08772,-17.05264 0,-7.71929 5.82456,-16.98245 19.08772,-16.98245 6.73684,0 11.36842,3.57895 11.36842,3.57895 l 5.61404,-11.22807 c 0,0 -6.45614,-5.33334 -19.01755,-5.33334 -16.42105,0 -31.36842,13.47369 -31.36842,30.10527 0,16.5614 15.01755,29.89473 31.36842,29.89473 12.56141,0 19.01755,-5.33333 19.01755,-5.33333 l -5.61404,-11.22807 c 0,0 -4.63158,3.57895 -11.36842,3.57895 z"/>
		<path d="m 826.49615,366.77193 h 18.66666 V 390 h 13.19298 v -57.89474 h -13.19298 v 23.08772 H 826.49615 V 332.10526 H 813.30316 V 390 h 13.19299 z"/>
		<path d="M 904.87995,332.10526 H 871.75714 V 390 h 33.12281 v -11.57895 h -19.92982 v -11.64912 h 19.08771 v -11.57895 h -19.08771 v -11.50877 h 19.92982 z"/>
		<path d="m 938.79769,331.05263 c -9.33333,0 -18.87719,6.8772 -18.87719,17.68421 0,6.03509 4.07017,11.4386 11.01754,14.8772 6.87719,3.43859 13.05263,5.33333 13.05263,9.54385 0,5.40351 -5.47368,5.68422 -8.35087,5.68422 -6.45614,0 -14.17544,-6.52632 -14.17544,-6.52632 l -6.59649,11.08772 c 0,0 8.21052,7.64912 21.75438,7.64912 11.29825,0 21.82456,-4.8421 21.82456,-18.66666 0,-7.57895 -7.08772,-13.05264 -13.54386,-15.78948 -6.59649,-2.80702 -12.07017,-5.12281 -12.07017,-8.35088 0,-3.15789 2.38596,-5.19298 6.87719,-5.19298 5.96491,0 11.7193,4 11.7193,4 l 5.33333,-10.52631 c 0,0 -7.43859,-5.47369 -17.96491,-5.47369 z"/>
		<path d="m 982.80645,354.07018 h 0.14035 L 1005.9643,390 h 13.193 v -57.89474 h -13.193 v 35.92983 h -0.1403 L 982.80645,332.10526 H 969.61347 V 390 h 13.19298 z"/>
		<path d="m 1077.0817,332.10526 h -13.193 v 33.47369 c 0,9.68421 -2.9474,12.49123 -9.4035,12.49123 -6.4561,0 -9.4035,-2.80702 -9.4035,-12.49123 v -33.47369 h -13.193 v 37.33334 c 0,14.31579 7.8597,21.61403 22.5965,21.61403 14.7368,0 22.5965,-7.29824 22.5965,-21.61403 z"/>
		<path d="m 1082.7352,343.68421 h 13.7544 V 390 h 13.193 v -46.31579 h 13.7544 v -11.57895 h -40.7018 z"/>
		<path d="m 1130.4983,343.68421 h 13.7544 V 390 h 13.193 v -46.31579 h 13.7544 v -11.57895 h -40.7018 z"/>
	</g>
</svg>
